<?xml version="1.0" encoding="UTF-8"?>
<svg id="Layer_2" data-name="Layer 2" xmlns="http://www.w3.org/2000/svg" viewBox="0 0 252 144">
  <defs>
    <style>
      .cls-1 {
        fill: #1c315e;
      }

      .cls-1, .cls-2, .cls-3, .cls-4, .cls-5, .cls-6 {
        stroke-width: 0px;
      }

      .cls-2 {
        fill: #070808;
      }

      .cls-3 {
        fill: #231f20;
      }

      .cls-4 {
        fill: #c3c3c6;
      }

      .cls-5 {
        fill: #b2b1b2;
      }

      .cls-6 {
        fill: #969696;
      }
    </style>
  </defs>
  <path class="cls-1" d="M100.81,81.21c2.05,2.51,5.08,4.62,8.45,4.62,6.07,0,11.22-3.63,11.22-9.96,0-5.74-4.95-9.9-10.96-9.9-3.5,0-6.6,1.45-9.17,3.76v-24.29h23.89l-1.58,5.94h-15.84v9.31c1.52-.46,2.97-.66,4.42-.66,8.32,0,15.71,7.39,15.71,15.84,0,9.83-8.31,15.9-17.42,15.9-6.01,0-10.23-2.44-13.99-7l5.28-3.56Z"/>
  <path class="cls-5" d="M5.12,121.83v-18.75h4.89c1.54,0,2.78.43,3.72,1.3.94.87,1.4,2.02,1.4,3.46,0,1.23-.45,2.29-1.35,3.17-.45.42-1.09.77-1.92,1.07.5.07.93.17,1.27.29.35.12.69.3,1.04.55,1.33.92,2,2.15,2,3.69s-.52,2.89-1.57,3.82c-1.05.94-2.48,1.4-4.3,1.4h-5.17ZM6.99,104.7v6.71h2.63c1.11,0,2-.31,2.68-.94s1.01-1.46,1.01-2.52c0-.99-.31-1.78-.92-2.37-.62-.59-1.45-.88-2.51-.88h-2.89ZM6.99,112.97v7.25h2.94c1.44,0,2.46-.25,3.07-.75.8-.66,1.2-1.63,1.2-2.91,0-1.14-.36-2.03-1.09-2.65s-1.76-.94-3.09-.94h-3.02Z"/>
  <path class="cls-5" d="M30.24,108.7v8.68c0,1.72-.48,2.96-1.44,3.73-.96.77-2.33,1.16-4.09,1.16s-3.09-.39-4.13-1.17c-.95-.71-1.43-1.95-1.43-3.72v-8.68h1.69v8.63c0,1.23.35,2.13,1.04,2.7.71.52,1.65.78,2.83.78s2.05-.26,2.77-.78c.72-.52,1.08-1.42,1.08-2.7v-8.63h1.69Z"/>
  <path class="cls-5" d="M32.76,121.11l.55-1.72c.5.36.91.63,1.22.81.68.36,1.46.55,2.37.55,1,0,1.84-.23,2.51-.7.67-.47,1-1.07,1-1.82,0-1.04-.64-1.75-1.92-2.13l-1.4-.39c-2.65-.73-3.98-1.95-3.98-3.67,0-1.04.43-1.92,1.29-2.64.86-.72,1.92-1.08,3.19-1.08.28,0,.55,0,.82.03.27.02.56.06.87.12s.66.17,1.05.31c.39.15.82.34,1.29.58l-.55,1.46-1.04-.52c-.81-.36-1.65-.55-2.5-.55-.76,0-1.39.2-1.89.6-.49.4-.74.9-.74,1.51,0,.57.32,1.08.96,1.51.31.21,1.12.52,2.42.94,1.06.31,1.88.64,2.47.99.97.52,1.46,1.4,1.46,2.65s-.47,2.34-1.42,3.12c-.94.78-2.22,1.17-3.83,1.17-.66,0-1.3-.07-1.91-.21s-1.37-.44-2.27-.91Z"/>
  <path class="cls-5" d="M44.33,105.61c0-.31.11-.59.33-.83.22-.24.5-.36.84-.36.31,0,.58.11.82.33.23.22.35.49.35.82s-.11.58-.34.82c-.23.23-.49.35-.78.35-.31,0-.59-.1-.85-.31-.25-.21-.38-.48-.38-.81ZM44.64,121.83v-12.92l1.69-.57v13.49h-1.69Z"/>
  <path class="cls-5" d="M49.97,121.83v-12.92l1.69-.57v2.34l.86-.94c.95-.87,2.17-1.3,3.67-1.3s2.72.42,3.63,1.26,1.36,1.95,1.36,3.34v8.79h-1.69v-8.35c0-1.11-.23-1.92-.68-2.42-.68-.78-1.67-1.17-2.99-1.17-.95,0-1.81.28-2.57.83-1.06.76-1.59,1.8-1.59,3.12v7.98h-1.69Z"/>
  <path class="cls-5" d="M77.37,112.5l-10.74,5.59.62.78c1.07,1.23,2.4,1.85,3.98,1.85.71,0,1.44-.17,2.2-.52s1.55-1.07,2.38-2.16l1.3.83c-.33.5-.65.92-.96,1.25-1.25,1.4-2.9,2.11-4.97,2.11s-3.67-.67-5.02-2.01c-1.35-1.34-2.03-2.99-2.03-4.95s.68-3.52,2.03-4.85,2.99-1.99,4.91-1.99c1.73,0,3.24.55,4.52,1.66.68.57,1.27,1.38,1.77,2.42ZM66.12,116.71l9.02-4.63c-.61-.87-1.36-1.48-2.26-1.85-.12-.04-.36-.1-.73-.2-.36-.09-.73-.14-1.09-.14-1.39,0-2.6.5-3.63,1.51-1.03,1-1.55,2.2-1.55,3.59,0,.26.08.83.23,1.72Z"/>
  <path class="cls-5" d="M78.6,121.11l.55-1.72c.5.36.91.63,1.22.81.68.36,1.46.55,2.37.55,1,0,1.84-.23,2.51-.7.67-.47,1-1.07,1-1.82,0-1.04-.64-1.75-1.92-2.13l-1.4-.39c-2.65-.73-3.98-1.95-3.98-3.67,0-1.04.43-1.92,1.29-2.64.86-.72,1.92-1.08,3.19-1.08.28,0,.55,0,.82.03.27.02.56.06.87.12s.66.17,1.05.31c.39.15.82.34,1.29.58l-.55,1.46-1.04-.52c-.81-.36-1.65-.55-2.5-.55-.76,0-1.39.2-1.89.6-.49.4-.74.9-.74,1.51,0,.57.32,1.08.96,1.51.31.21,1.12.52,2.42.94,1.06.31,1.88.64,2.47.99.97.52,1.46,1.4,1.46,2.65s-.47,2.34-1.42,3.12c-.94.78-2.22,1.17-3.83,1.17-.66,0-1.3-.07-1.91-.21s-1.37-.44-2.27-.91Z"/>
  <path class="cls-5" d="M89.33,121.11l.55-1.72c.5.36.91.63,1.22.81.68.36,1.46.55,2.37.55,1,0,1.84-.23,2.51-.7.67-.47,1-1.07,1-1.82,0-1.04-.64-1.75-1.92-2.13l-1.4-.39c-2.65-.73-3.98-1.95-3.98-3.67,0-1.04.43-1.92,1.29-2.64.86-.72,1.92-1.08,3.19-1.08.28,0,.55,0,.82.03.27.02.56.06.87.12s.66.17,1.05.31c.39.15.82.34,1.29.58l-.55,1.46-1.04-.52c-.81-.36-1.65-.55-2.5-.55-.76,0-1.39.2-1.89.6-.49.4-.74.9-.74,1.51,0,.57.32,1.08.96,1.51.31.21,1.12.52,2.42.94,1.06.31,1.88.64,2.47.99.97.52,1.46,1.4,1.46,2.65s-.47,2.34-1.42,3.12c-.94.78-2.22,1.17-3.83,1.17-.66,0-1.3-.07-1.91-.21s-1.37-.44-2.27-.91Z"/>
  <path class="cls-5" d="M137.04,80.48c1.85,2.9,5.02,5.34,8.65,5.34,4.75,0,8.25-2.31,8.25-7.92,0-10.49-20.72-4.75-20.72-20.66,0-7.99,5.74-12.87,13.92-12.87,5.02,0,9.77,2.64,12.74,6.6l-4.36,4.36c-2.44-2.57-4.95-5.02-8.71-5.02-4.16,0-7.13,2.64-7.13,6.93,0,9.31,20.72,5.08,20.72,20.72,0,8.05-6.2,13.79-14.06,13.79-6.2,0-9.96-2.97-14.06-7.33l4.75-3.96Z"/>
  <path class="cls-5" d="M183.31,62.93h-8.91v17.69c0,4.22,1.32,5.54,5.94,5.54,1.45,0,2.84-.26,4.22-.4l-1.12,5.74c-1.25.13-2.38.26-5.08.26-5.87,0-10.29-4.22-10.29-10.23v-18.61h-5.21l2.24-5.61h2.97v-8.18l6.34-1.52v9.7h8.91v5.61Z"/>
  <path class="cls-5" d="M207.86,91.76v-4.62h-.13c-1.91,3.76-5.87,4.62-9.9,4.62-7.52,0-12.41-5.61-12.41-13s6.53-11.81,13.33-11.81c3.17,0,6.27.92,8.45,3.23v-2.57c0-4.95-2.97-5.41-7.92-5.41-2.77,0-6.34.2-9.77,1.91l1.72-6.53c2.31-.46,6.01-1.32,9.11-1.32,8.98,0,13.2,3.56,13.2,12.54v21.91l-5.68,1.06ZM191.75,78.76c0,4.69,2.71,7.06,7.26,7.06s8.18-1.65,8.18-7.06c0-4.22-3.76-6.2-7.72-6.2s-7.72,1.85-7.72,6.2Z"/>
  <path class="cls-5" d="M219.94,91.76v-34.45l5.94-1.06v7.19h.13c1.91-4.22,5.15-7.33,10.3-7.33h3.17l-2.64,6.34c-5.68-.33-10.56,3.83-10.56,12.47v15.77l-6.34,1.06Z"/>
  <g>
    <path class="cls-6" d="M100.15,121.83l8.2-20.51h4.1l8.19,20.49h-4.36s-1.23-3.13-1.23-3.13h-9.3l-1.23,3.14h-4.38ZM110.52,106.79l-3.12,7.79h6.15l-3.04-7.79Z"/>
    <path class="cls-6" d="M130.9,108.54c.71.31,1.38.77,2,1.38l-2.13,2.41c-.62-.74-1.39-1.11-2.32-1.11s-1.54.17-1.85.51c-.31.34-.31.65,0,.93.31.28.92.51,1.85.69,1.36.13,2.47.51,3.34,1.16.87.65,1.3,1.77,1.3,3.38,0,1.29-.51,2.3-1.53,3.01-1.02.71-2.21,1.07-3.57,1.07s-2.37-.18-3.23-.55-1.6-.86-2.22-1.48l2.12-2.39c.62.74,1.58,1.17,2.88,1.29,1.05,0,1.72-.17,2.03-.51.3-.34.35-.68.14-1.03-.21-.34-.94-.57-2.17-.69-1.11-.13-2.13-.47-3.06-1.03-.93-.56-1.39-1.6-1.39-3.14,0-1.41.53-2.49,1.58-3.23s2.13-1.11,3.25-1.11c1.29,0,2.28.16,2.99.46Z"/>
    <path class="cls-6" d="M143.36,108.54c.71.31,1.38.77,2,1.38l-2.13,2.41c-.62-.74-1.39-1.11-2.32-1.11s-1.54.17-1.85.51-.31.65,0,.93.92.51,1.85.69c1.36.13,2.47.51,3.34,1.16s1.3,1.77,1.3,3.38c0,1.29-.51,2.3-1.53,3.01s-2.21,1.07-3.57,1.07-2.37-.18-3.23-.55-1.6-.86-2.22-1.48l2.12-2.39c.62.74,1.58,1.17,2.88,1.29,1.05,0,1.72-.17,2.03-.51s.35-.68.14-1.03-.94-.57-2.17-.69c-1.11-.13-2.13-.47-3.06-1.03s-1.39-1.6-1.39-3.14c0-1.41.53-2.49,1.58-3.23s2.13-1.11,3.25-1.11c1.29,0,2.28.16,2.99.46Z"/>
    <path class="cls-6" d="M149.3,119.97c-1.33-1.33-2-2.99-2-4.97s.67-3.65,2-4.98,2.99-2,4.98-2,3.65.67,4.98,2,2,2.99,2,4.98-.67,3.65-2,4.98-2.99,2-4.98,2-3.65-.67-4.98-2ZM154.26,118.66c1.04,0,1.88-.35,2.53-1.05s.97-1.57.97-2.6-.32-1.91-.97-2.61-1.5-1.05-2.54-1.05-1.87.35-2.52,1.05-.97,1.57-.97,2.61.32,1.91.97,2.6,1.49,1.05,2.53,1.05Z"/>
    <path class="cls-6" d="M164.98,120.12c-1.37-1.14-2.05-2.62-2.05-4.44v-1.37c0-1.82.68-3.3,2.05-4.44s2.97-1.71,4.8-1.71c2.19,0,4.01.77,5.46,2.32l-2.73,2.05c-.82-.82-1.73-1.23-2.73-1.23-.91,0-1.71.36-2.39,1.09-.68.73-1.03,1.59-1.03,2.6s.32,1.87.96,2.6c.64.73,1.46,1.09,2.46,1.09s1.91-.41,2.73-1.23l2.73,2.05c-1.46,1.55-3.28,2.32-5.47,2.32-1.82,0-3.42-.57-4.79-1.71Z"/>
    <path class="cls-6" d="M178.15,103.51c.36-.37.86-.55,1.48-.55.66,0,1.17.18,1.53.55s.55.83.55,1.37-.18,1-.55,1.37-.87.55-1.5.55-1.14-.18-1.5-.55-.55-.82-.55-1.37.18-1,.55-1.37ZM181.57,121.83v-13.69h-3.83v13.69h3.83Z"/>
    <path class="cls-6" d="M184.94,109.8c1.73-1.09,3.74-1.64,6.02-1.64,1.64,0,2.94.46,3.9,1.37s1.44,2.28,1.44,4.1v8.2h-3.83v-1.09c-1.11.73-2.12,1.09-3.01,1.09-1.82,0-3.19-.39-4.1-1.16-.91-.77-1.37-1.85-1.37-3.21,0-1.28.43-2.42,1.29-3.42s2.25-1.5,4.18-1.5c.88,0,1.89.27,3.01.82v-.41c-.02-1-.75-1.55-2.19-1.64-1.64,0-2.92.27-3.83.82l-1.5-2.32ZM192.46,117.73v-1.54c-.37-.7-1.23-1.05-2.6-1.05-1.64.18-2.51.82-2.6,1.91.09,1.08.96,1.67,2.6,1.76,1.37,0,2.23-.36,2.6-1.08Z"/>
    <path class="cls-6" d="M205.66,121.83c-1.55,0-2.78-.43-3.69-1.3-.91-.87-1.37-1.98-1.37-3.35v-5.92h-2.05v-3.09h2.05v-3.71l3.84-.41v4.12h2.05v3.09h-2.05v5.37c0,.73.15,1.24.46,1.54.3.3.7.44,1.18.44.15,0,.49-.06,1.03-.18l.81,2.75c-.66.43-1.41.64-2.26.64Z"/>
    <path class="cls-6" d="M210.43,103.51c.36-.37.86-.55,1.48-.55.66,0,1.17.18,1.53.55.36.37.55.83.55,1.37s-.18,1-.55,1.37c-.36.36-.87.55-1.5.55s-1.14-.18-1.5-.55-.55-.82-.55-1.37.18-1,.55-1.37ZM213.85,121.83v-13.69h-3.83v13.69h3.83Z"/>
    <path class="cls-6" d="M218.16,119.97c-1.33-1.33-2-2.99-2-4.97s.67-3.65,2-4.98c1.33-1.33,2.99-2,4.98-2s3.65.67,4.98,2,2,2.99,2,4.98-.67,3.65-2,4.98-2.99,2-4.98,2-3.65-.67-4.98-2ZM223.13,118.66c1.04,0,1.88-.35,2.53-1.05s.97-1.57.97-2.6-.32-1.91-.97-2.61-1.5-1.05-2.54-1.05-1.87.35-2.52,1.05c-.65.7-.97,1.57-.97,2.61s.32,1.91.97,2.6c.65.7,1.49,1.05,2.53,1.05Z"/>
    <path class="cls-6" d="M236.31,113.14v8.7h-3.83v-13.28l3.83-.41v1.24c.92-.82,2.01-1.23,3.28-1.23,1.73,0,3.05.52,3.96,1.57s1.37,2.26,1.37,3.62v8.48h-3.83v-7.52c0-.91-.23-1.62-.68-2.12s-1.14-.77-2.06-.79c-.79.05-1.47.63-2.04,1.74Z"/>
  </g>
  <polygon class="cls-3" points="26.57 91.51 51.69 78.59 49.16 60.97 31.57 63.71 26.57 91.51"/>
  <polygon class="cls-4" points="76.84 91.48 71.76 63.69 54.17 61 51.69 78.63 76.84 91.48"/>
  <polygon class="cls-4" points="11.31 43.95 31.53 63.67 47.44 55.68 39.26 39.87 11.31 43.95"/>
  <polygon class="cls-2" points="91.98 43.98 71.76 63.7 55.85 55.72 64.03 39.91 91.98 43.98"/>
  <polygon class="cls-1" points="51.69 14.59 39.18 39.91 51.69 52.57 64.2 39.91 51.69 14.59"/>
</svg>