<svg id="Layer_1" data-name="Layer 1" xmlns="http://www.w3.org/2000/svg" xmlns:xlink="http://www.w3.org/1999/xlink" viewBox="0 0 122.01 70.23"><defs><style>.cls-1{fill:url(#linear-gradient);}.cls-2,.cls-3{fill:#e02826;}.cls-3{isolation:isolate;}.cls-4{fill:none;}</style><linearGradient id="linear-gradient" x1="21.1" y1="5.58" x2="51.04" y2="52.38" gradientUnits="userSpaceOnUse"><stop offset="0.15" stop-color="#1e376c"/><stop offset="0.3" stop-color="#1e376c" stop-opacity="0.97"/><stop offset="0.43" stop-color="#1e376c" stop-opacity="0.87"/><stop offset="0.55" stop-color="#1e376c" stop-opacity="0.71"/><stop offset="0.66" stop-color="#1e376c" stop-opacity="0.48"/><stop offset="0.77" stop-color="#1e376c" stop-opacity="0.19"/><stop offset="0.83" stop-color="#1e376c" stop-opacity="0"/></linearGradient></defs><path class="cls-1" d="M48.05,45h1.16l-.4.38c-.45.43-.91.87-1.37,1.29l-1.2,1.06c-.41.35-.8.71-1.21,1.05s-.74.6-1.11.9l0,0a2,2,0,0,0-.66-.42l.19-.15c.35-.28.69-.55,1-.84.52-.44,1-.89,1.54-1.34l.88-.77C47.27,45.75,47.66,45.37,48.05,45ZM34.72,45c.5.71,1,1.43,1.5,2.15l0-.06h.87c-.46-.7-1-1.39-1.44-2.09ZM31,23.63l.78-1.81-.16.14c-.56.5-1.1,1-1.65,1.55l-1,.91c-.21.21-.41.43-.62.63l-.08,1.23c.42-.44.83-.88,1.26-1.3l.95-.89Zm12,13c1.86-1.36,3.71-2.74,5.53-4.12q-.74-.9-1.47-1.83c-.33-.43-.64-.86-1-1.29l.36-.85c.41.55.81,1.1,1.23,1.65s1,1.23,1.48,1.84l0,0c-.85-1.17-1.71-2.34-2.61-3.49l-.08-.11.35-.83.36.45q1.35,1.74,2.61,3.49c1.12-.85,2.18-1.68,3.21-2.49l-.65,1.53-2.09,1.61.86,1.24-.64,1.5c-.51-.58-1-1.16-1.51-1.76-2.17,1.65-4.4,3.29-6.64,4.91Zm6.67-4,.14.16-.13-.17ZM47.27,26.6l.15-.1h-.1Zm-9.12,19L37.61,45h-1c.32.38.64.77,1,1.14s.55.64.83,1h1.06l-.32-.36C38.78,46.37,38.46,46,38.15,45.64ZM52,51.06l-.2.11c0,.07,0,.13,0,.21Zm15,4.56a3.06,3.06,0,0,0,.59-.45A32.75,32.75,0,0,1,62.8,61a.65.65,0,0,1,0,.13.08.08,0,0,1,0,0,2.67,2.67,0,0,1-.2.46l0,.07c-.07.13-.15.24-.23.36l-.06.09a3.84,3.84,0,0,1-.27.29l-.09.09a2.55,2.55,0,0,1-.41.3,2.71,2.71,0,0,1-.42.2l-.11,0-.35.1-.14,0-.2,0-.19.15h0a32.31,32.31,0,0,1-24.73,6.45,33.42,33.42,0,0,1-8.39-2.39h-.05a3.54,3.54,0,0,1-1.47-.4,11.93,11.93,0,0,1-2-1.27,22.12,22.12,0,0,1-3.16-1.66,22.47,22.47,0,0,1-4.95-4.29l-.38-.26a.1.1,0,0,1-.05,0,4.42,4.42,0,0,1-.53-.44l0,0a5.79,5.79,0,0,1-.48-.51l-.05-.06c-.13-.18-.26-.35-.38-.54a1,1,0,0,1-.1-.17c-.09-.16-.19-.32-.27-.49s-.11-.25-.16-.37-.1-.22-.14-.33-.11-.35-.16-.52l-.2,0a1,1,0,0,1-.81-.34.94.94,0,0,1-.1-.78,11.26,11.26,0,0,1-3.09-5,2.12,2.12,0,0,1-.11-.21L8,49.36c-.17-.33-.32-.67-.47-1-.06-.14-.13-.28-.2-.42-.16-.38-.31-.77-.46-1.16l-.12-.3c-.18-.49-.35-1-.5-1.48H8.48l.29-.39a14.41,14.41,0,0,0-.13,2c.33.58.67,1.17,1,1.78a30.36,30.36,0,0,1-.62-4.11l.73-1,0,.64a29.3,29.3,0,0,0,1.27,6.62c.37.56.74,1.12,1.13,1.68,0-.3.06-.62.11-.94a.28.28,0,0,1,0-.09c.07-.51.17-1,.3-1.58,0-.09,0-.19.07-.29.13-.55.28-1.1.46-1.67.3-1,.68-1.93,1.11-2.94-1.13-1.2-2.2-2.25-3.2-3.13l.1-.13h1c.79.73,1.62,1.55,2.49,2.47.28-.61.58-1.23.91-1.85l-.41-.62h1.65c-.11.19-.22.38-.32.57l.53.78L16.86,44,16,42.83q-.43.86-.81,1.71l.06.06h0c.91,1,1.83,2.06,2.75,3.18l.89-.78-1.42-2h1c.35.49.69,1,1.05,1.48.55-.48,1.14-1,1.75-1.48h1.24l-.28.23L20,47.13c.66.89,1.32,1.78,2,2.67l.49.62c1-.59,2-1.22,3.07-1.89l-.22,1.08L23,51.05q.82,1,1.65,2l-.2,1c-.72-.86-1.43-1.73-2.14-2.63-.34.21-.66.39-1,.58.82,1.15,1.61,2.3,2.34,3.43.14.21.25.42.39.62l0,.08h.06c.58.93,1.11,1.82,1.58,2.67.49,0,1,0,1.5,0,.35-.12.7-.26,1.06-.4q-1-1.1-2-2.25h1.06c.57.66,1.15,1.3,1.73,1.93.93-.39,1.87-.83,2.85-1.33.79-.4,1.6-.84,2.41-1.31l.46-.28-.5,1h.4c-.81.47-1.62.91-2.41,1.32s-1.64.8-2.44,1.15c1.19-.12,2.41-.29,3.66-.52a52.79,52.79,0,0,0,7.42-1.95H42l.26-.52v0c.44-.16.87-.35,1.31-.52a2.36,2.36,0,0,0,.68.61l-1.61.62c.43.84.83,1.66,1.19,2.45a33,33,0,0,1,1.86,5A37.54,37.54,0,0,0,52,59.92l-.34-.24-.17-.12c-.48-.35-1-.71-1.46-1.1s-1.27-1-1.92-1.58c-.24-.2-.48-.43-.72-.64a5.13,5.13,0,0,0,1-.21l.28.24q1,.82,1.89,1.56c.58.45,1.14.88,1.69,1.27l0,0,.41.28a39.88,39.88,0,0,0,3.6-3.28,4.18,4.18,0,0,0,1,.16,42.41,42.41,0,0,1-3.89,3.58l.5.33h0a20.15,20.15,0,0,0,2.92,1.56l.72-.39L58.1,61l.83-.5.61-.38.85-.57.54-.37c.31-.22.6-.45.9-.67l.39-.29c0-.11,0-.23,0-.34l0-.29c0-.23-.07-.47-.11-.71a.59.59,0,0,1,0-.13l-.18-.83s0-.06,0-.09,0-.05,0-.08a2.83,2.83,0,0,0,.9.36c.11.53.2,1,.26,1.51l.27-.22.76-.66.49-.45,0,0a5.65,5.65,0,0,0,1.34-.17l-.27.27-.8.74-.45.41-.84.7c-.15.12-.28.25-.43.36,0,.14,0,.27,0,.41s0,.12,0,.18,0,.31,0,.47a32.07,32.07,0,0,0,3-3.6A4,4,0,0,0,67,55.62ZM7.51,46.22l-.06-.17,0,0a.56.56,0,0,1,0,.12Zm2.87,4.7v0l0,0Zm34.79,14c-.82.37-1.64.7-2.47,1,.87-.08,1.73-.19,2.6-.34C45.26,65.37,45.22,65.15,45.17,64.92Zm-15-5.53a70.68,70.68,0,0,0,5.87,5.55q.75.61,1.44,1.14c.6,0,1.19,0,1.79,0,.72-.17,1.45-.37,2.18-.6A33.91,33.91,0,0,0,45,64.13a32.22,32.22,0,0,0-1.85-5c-.37-.8-.79-1.64-1.23-2.5a55.21,55.21,0,0,1-8.34,2.25C32.42,59.12,31.31,59.27,30.22,59.39Zm-11.68-11c.37.45.73.91,1.09,1.38s.79,1.08,1.19,1.62l1-.57c-.15-.18-.29-.36-.43-.55-.68-.87-1.33-1.74-2-2.62Zm-3.45,2.11c.69-.67,1.49-1.41,2.36-2.19-.86-1-1.71-2-2.57-3-.36.86-.68,1.71-.94,2.53q-.18.57-.33,1.11l-.06.28c-.07.26-.14.53-.2.79a.76.76,0,0,1,0,.16c-.06.3-.11.59-.16.88v0A14.12,14.12,0,0,0,13,52.67C13.56,52,14.25,51.32,15.09,50.51Zm-1.73,4.6-.28-.38c0,.15.06.29.08.44ZM14,56l-.14-.18-.09,0ZM18,53c.68-.36,1.41-.77,2.18-1.21-.38-.51-.74-1-1.14-1.53s-.69-.89-1-1.33c-.84.76-1.63,1.48-2.31,2.14-1,1-1.82,1.84-2.39,2.53.3.41.59.82.9,1.22A36.51,36.51,0,0,0,18,53Zm3.85,5.57a27.35,27.35,0,0,0,2.93.24c-.53-.93-1.11-1.9-1.76-2.92s-1.54-2.3-2.37-3.45c-.8.46-1.57.89-2.28,1.27a39.63,39.63,0,0,1-3.67,1.77l1.14,1.43A21,21,0,0,0,21.8,58.58Zm-3.45,2.51-.19-.19h-.05Zm1.28-.85h.56c.39,0,.8,0,1.22-.06l.29,0q.68-.07,1.38-.21c.5-.09,1-.21,1.54-.34-1,0-2-.11-2.93-.24a22.84,22.84,0,0,1-4.82-1.15c.46.54.92,1.07,1.38,1.58l.52.37C19.08,60.21,19.35,60.23,19.63,60.24ZM23.74,63a35.2,35.2,0,0,0,3.46,1.32,21.52,21.52,0,0,0-1.29-3.23l-.44-.85c-.76.22-1.51.4-2.24.54-.55.1-1.09.18-1.61.23l-.54,0c-.31,0-.63,0-.93,0A32.29,32.29,0,0,0,23.74,63Zm3.66,2.22a36.51,36.51,0,0,1-4-1.49c-.43-.19-.85-.4-1.28-.61s-1.06-.54-1.57-.83c.74.73,1.45,1.39,2.12,2l.63.51c.36.22.73.43,1.1.63a21,21,0,0,0,3,.91A2.79,2.79,0,0,0,27.4,65.18Zm.69-.62A37.18,37.18,0,0,0,36.16,66l-.58-.45a75.29,75.29,0,0,1-6.37-6.07c-.64.06-1.28.1-1.9.12L26.25,60c.13.24.26.49.37.73A18.62,18.62,0,0,1,28.09,64.56Zm.08,1.88c.77.15,1.55.27,2.36.35a25.23,25.23,0,0,0,5,0,38.11,38.11,0,0,1-7.29-1.32A3.15,3.15,0,0,1,28.17,66.44Zm13.22,3-.19-.08a22,22,0,0,1-3.43-2.08,27.12,27.12,0,0,1-4.88.46c-.82,0-1.63,0-2.44-.12-.55,0-1.1-.12-1.64-.21a32.21,32.21,0,0,0,12.58,2Zm4-3a40.58,40.58,0,0,1-5.93.53l-.64.13a18.58,18.58,0,0,0,2.69,1.57,5.08,5.08,0,0,0,2.51.59l.14,0a1.34,1.34,0,0,0,.51-.18C45.29,68.61,45.53,67.72,45.41,66.36Zm.51-1.78c.06.3.11.58.16.86a40.65,40.65,0,0,0,4.06-1l1.54-.5.74-.28.73-.28.93-.38.52-.22,1-.46.24-.12a23.53,23.53,0,0,1-2.72-1.53l-.07,0-.38-.24,0,0h0A37.83,37.83,0,0,1,45.92,64.58Zm13-1.34h0l-.37-.07-.31-.06L57.68,63l-.17-.05-.73-.26-.5.24-1,.49-.44.19c-.38.17-.77.34-1.16.49l-.48.19L52,64.68c-.55.19-1.1.37-1.66.54a39.9,39.9,0,0,1-4.16,1h0a4.56,4.56,0,0,1-.38,2.7c.78-.14,1.55-.3,2.32-.5A31.52,31.52,0,0,0,58.93,63.24Zm3.33-4-.17.12A38.07,38.07,0,0,1,57.92,62a1.18,1.18,0,0,0-.19.11l.08,0a5.93,5.93,0,0,0,.85.22l.12,0a4.39,4.39,0,0,0,.78.08h.15l.24,0q1.11-.88,2.13-1.86c0-.12.07-.22.1-.36v0a5.89,5.89,0,0,0,.08-1Zm9.37-12.57c.17-.54.33-1.09.47-1.64h-.83a33,33,0,0,1-1.08,3.37,5.69,5.69,0,0,1-2.5-.36,16.76,16.76,0,0,1-3.33-1.62c.24-.46.46-.93.69-1.39h-.91c-.15.32-.3.65-.47,1-.46-.3-.93-.62-1.42-1H60.6c-.54.45-1.08.91-1.64,1.36-.23-.45-.48-.91-.72-1.36h-.88c.33.62.65,1.25,1,1.85-.26.21-.54.4-.81.6L56.73,49c.65-.46,1.31-.92,1.94-1.4q.36.73.69,1.44h.18a5.12,5.12,0,0,1,.7.05c-.29-.64-.59-1.3-.92-2l0,0h0c.71-.56,1.39-1.12,2-1.69l.06,0c.63.47,1.24.88,1.83,1.26-.54,1-1.13,1.95-1.75,2.9a2.92,2.92,0,0,1,.38.32l.19.27c.67-1,1.29-2,1.86-3.07a18.12,18.12,0,0,0,3.47,1.68,7.14,7.14,0,0,0,2.37.44h0c-.16.38-.34.75-.51,1.13a1.89,1.89,0,0,1,.13.33A4.09,4.09,0,0,1,71,49.49l.1,0,.31-.54a3.23,3.23,0,0,0,.41-.22c1-.67,1.53-1.91,1.56-3.69h-1C72.11,45.55,71.89,46.1,71.63,46.64ZM74.9,31.75l-.69.88c0-.54-.11-1.08-.19-1.62a2.22,2.22,0,0,1-.54.67,2.46,2.46,0,0,1-.45.25c.07.65.13,1.31.16,2l-.76,1c0-.91-.08-1.82-.18-2.73l-.26,0a3.73,3.73,0,0,1-.46,0,26.33,26.33,0,0,1-1.17,2.48c.2.44.4.88.59,1.32h-.87l-.2-.47c-.09.16-.19.31-.29.47h-.94q.43-.67.81-1.35c-.23-.47-.45-.95-.7-1.44-.14.93-.32,1.86-.53,2.79h-.81a40.39,40.39,0,0,0,.7-4c-.32-.59-.65-1.2-1-1.81a29.38,29.38,0,0,1-2.9-2.35l.33-.78c.52.47,1,.92,1.52,1.32-.4-.66-.81-1.32-1.24-2l.38-.88c.59.91,1.17,1.82,1.71,2.72.28.47.54.93.8,1.39.2.14.4.26.59.38.07-1.12.1-2.23.06-3.34a30.22,30.22,0,0,0-.88-6.47l.5-1.17a31,31,0,0,1,1.18,7.61,37.8,37.8,0,0,1-.09,3.83,9.06,9.06,0,0,0,1.91.82h0a20.58,20.58,0,0,0,.72-2.37c-.1-.47-.2-.94-.32-1.4A35.3,35.3,0,0,0,68,18.82l.62-1.43h-3v-.07c0-.14,0-.28,0-.41l0-.49c0-.14,0-.28,0-.41s0-.26,0-.38a36.76,36.76,0,0,0-3.63,1.76H60.46A48.14,48.14,0,0,1,65.14,15a22.48,22.48,0,0,0-8.23-2c-.38,0-.78,0-1.17,0,1.25,1.39,2.47,2.85,3.68,4.36h-1c-1.22-1.52-2.47-3-3.74-4.38H54c.45.91,1,1.85,1.55,2.82.31.51.64,1,1,1.55H55.6c-.24-.38-.49-.76-.72-1.14-.66-1.1-1.23-2.16-1.73-3.19a44.21,44.21,0,0,0-7.22.95c-1.35.29-2.71.66-4.06,1.07l-.51.33-.57.37-.8.56-.57.4c-.13.08-.26.18-.38.27.06.12.14.25.21.38H36.81l-.23-.23c0-.06-.11-.11-.16-.16l-.91.39H33.69l-.44,1c-1.56.75-3.1,1.54-4.58,2.41l.06-.94c1.7-1,3.44-1.89,5.23-2.7.61-.28,1.23-.53,1.85-.78L35.4,16c-.17-.16-.34-.33-.51-.48l-.62-.58-.48-.44L33.17,14l-.46-.42L32.1,13l-.45-.38-.61-.5-.43-.34q-.33-.27-.66-.51L29.6,11l-1-.72c-.7-.49-1.4-.94-2.19-1.41a41.17,41.17,0,0,0-6.87,6.53c.06.18.11.36.17.55s.12.37.19.56.21.58.33.88h-.86l-.18-.47c-.09-.27-.17-.52-.26-.78-.68.85-1.34,1.74-2,2.66a40,40,0,0,0-2.21,3.63l.28.2-.49.62-.18-.12c-.15.29-.28.58-.42.87l-2,2.51c.52-1.29,1.11-2.57,1.76-3.81a12.4,12.4,0,0,0-2.92-1.42h0c-.23.35-.46.69-.68,1a29.06,29.06,0,0,0-1.79,3.4,27.9,27.9,0,0,0,1.26,3.74L9,30.18a34.44,34.44,0,0,1-1.19-3.27,28.51,28.51,0,0,0-1.31,4.28c-.07.76-.11,1.52-.13,2.29L5.15,35c0-.61.1-1.22.19-1.84s.24-1.42.39-2.12c0-.55.12-1.1.2-1.65A35.35,35.35,0,0,1,7.2,23.78a4.2,4.2,0,0,1,.47-2.51,2.05,2.05,0,0,1,.7-.67,33.78,33.78,0,0,1,2-3.9A33.28,33.28,0,0,1,18.8,7a2.68,2.68,0,0,1,.63-.49l.29-.21h0A32.28,32.28,0,0,1,31.65,1a33.28,33.28,0,0,1,4.2-.64A4.33,4.33,0,0,1,38.61.1l.63.15a32.79,32.79,0,0,1,5.3.51c.92.17,1.82.38,2.71.62a22.52,22.52,0,0,1,2.47.31,22.87,22.87,0,0,1,6.92,2.43l.49.27.59.36.16.1.09.06c.56.36,1.1.73,1.63,1.14A23.6,23.6,0,0,1,61.78,8l.33.32h0l.21.21A6.71,6.71,0,0,1,64,9.44a5.19,5.19,0,0,1,.55.49c.07.06.12.14.19.2l.3.34c.07.09.13.19.2.29a3.37,3.37,0,0,1,.21.31c.07.12.13.24.19.36s.12.2.17.3.11.27.16.41a2.85,2.85,0,0,1,.12.31c0,.08,0,.17.08.26.27.34.55.67.81,1l.44.58a1.33,1.33,0,0,1,1,.14.75.75,0,0,1,.3.67,1.56,1.56,0,0,1-.19.67l.55.8A11.12,11.12,0,0,1,72.72,23c.26.56.5,1.11.7,1.64a14.48,14.48,0,0,1,1,4h0V29A26.37,26.37,0,0,1,74.9,31.75ZM61.26,9c.65.59,1.29,1.19,1.9,1.83-.44-.58-.9-1.14-1.39-1.68Zm-1.53-.27c-.36,0-.73-.05-1.12-.05h0l-.69,0h-.16a33.5,33.5,0,0,1,5.35,3.23A35.17,35.17,0,0,0,59.73,8.72ZM54,4c.87.45,1.74.94,2.58,1.48A32.14,32.14,0,0,1,60.05,8l.62.08a27.59,27.59,0,0,0-3.14-2.46l-.25-.16-.52-.32-.51-.28A7.48,7.48,0,0,0,54.13,4Zm-1.91-.91.5.22.08,0Zm-.25,3.38a35,35,0,0,1,3.78,1.29l.68.29c.44-.06.87-.11,1.29-.14h0l.44,0,.54,0h0c-.79-.61-1.61-1.18-2.46-1.72a34.65,34.65,0,0,0-3.58-2,1.44,1.44,0,0,0-.27.22A2.85,2.85,0,0,0,51.88,6.47Zm2.5,1.66-.67-.25c-.26-.1-.53-.18-.79-.26l-.67-.22L52,7.32A12,12,0,0,0,52.37,9c.87-.27,1.7-.5,2.51-.67Zm-10.94-6q.53.31,1.08.69A43,43,0,0,1,48.16,5.6c1,.18,2,.39,2.92.64a3.43,3.43,0,0,1,.67-2.36l.07-.06a33.73,33.73,0,0,0-4.71-1.66A25,25,0,0,0,43.44,2.16Zm7.7,4.93L50.77,7l-.84-.2-.55-.12c.67.59,1.35,1.21,2,1.87A10.69,10.69,0,0,1,51.14,7.09ZM41.66,1.18l.57.29,1-.1C42.73,1.29,42.19,1.23,41.66,1.18ZM34.87,3.27a30.62,30.62,0,0,1,3.25-1c.9-.24,1.8-.42,2.69-.57A10.65,10.65,0,0,0,39.12,1c-1,0-2,0-3,.1a2,2,0,0,0-.68.57A3.4,3.4,0,0,0,34.87,3.27Zm-.06.88a11,11,0,0,0,.06,1.37A39.13,39.13,0,0,1,43.11,5c1.18,0,2.34.16,3.49.32-.87-.68-1.71-1.3-2.52-1.85s-1.37-.87-2-1.22A28.07,28.07,0,0,0,38.32,3,32.68,32.68,0,0,0,34.81,4.15ZM10,21.11a2,2,0,0,0-1,.12c-.36.87-.67,1.75-1,2.65a4.88,4.88,0,0,0,.06.52c.41-.84.87-1.68,1.37-2.49Zm1.26-1.8c.14-.19.3-.37.44-.55l.55-.69.55-.62.5-.57c.2-.22.42-.43.63-.65l.48-.49c.23-.23.47-.44.7-.66l.48-.45c.24-.22.5-.43.75-.64l.49-.42.79-.62.43-.33h0c0-.09,0-.18-.05-.28s0-.32-.07-.48,0-.24,0-.35,0-.31,0-.46,0-.22,0-.33,0-.28,0-.41,0-.21,0-.32,0-.25,0-.37,0-.2,0-.3,0-.23,0-.33A1.42,1.42,0,0,1,18,8.76,32.7,32.7,0,0,0,11,17.1a35.81,35.81,0,0,0-1.63,3.21,3.8,3.8,0,0,1,1.08.07l.15-.21C10.81,19.88,11,19.59,11.22,19.31Zm7.44-4.08c0-.08,0-.15-.07-.24-.09-.31-.16-.62-.24-.92s-.11-.4-.15-.58l-.31.24-.73.58c-.18.14-.34.29-.51.43l-.68.59-.5.47-.62.59-.49.51-.58.6c-.17.18-.32.36-.48.55s-.36.39-.53.6l-.49.61-.45.57c-.19.25-.36.5-.54.74l0,0A13.38,13.38,0,0,1,14.1,22a41.39,41.39,0,0,1,2.23-3.65C17.06,17.27,17.84,16.23,18.66,15.23ZM23.73,10a36.31,36.31,0,0,0-3.18,1.8l-.14.09c-.51.33-1,.68-1.5,1,.06.31.14.63.22.95s.09.39.15.59A41.74,41.74,0,0,1,23.73,10ZM25.42,8.3a12.46,12.46,0,0,0-3.09-1.23,3.46,3.46,0,0,0-2.48.16c-.16.13-.32.26-.49.38s-.15.18-.22.28a2.81,2.81,0,0,0-.32.7l0,.08a4.38,4.38,0,0,0-.16.86s0,.08,0,.11a7.42,7.42,0,0,0,0,1.06v.1a12.79,12.79,0,0,0,.14,1.28h0l.2-.14c.43-.3.87-.59,1.31-.87l.1-.07A38.51,38.51,0,0,1,25.42,8.3Zm1-.45A36.22,36.22,0,0,1,34,3.61a4.57,4.57,0,0,1,.76-2.34q-1.49.18-3,.51A31.48,31.48,0,0,0,21.43,6.14a6.11,6.11,0,0,1,1.07.15c.27.06.55.14.84.23h0a16.79,16.79,0,0,1,3,1.37h0l.07-.05ZM34,4.48a35.81,35.81,0,0,0-4.48,2.3l.67-.2a37.42,37.42,0,0,1,3.9-.92C34,5.25,34,4.85,34,4.48Zm3.5,11.24c-.39-.81-.77-1.6-1.1-2.37a30.22,30.22,0,0,1-2.19-6.9c-1.28.24-2.55.53-3.8.89-1,.29-2,.64-3.13,1.09.58.36,1.18.76,1.81,1.2.19.13.38.28.57.42l.43.31.55.43.47.37.58.47.47.38.6.51.47.4.63.56c.15.14.31.27.46.42l.66.6.45.42.68.65.45.44.05,0Zm.53,1-.17-.33-.63.23,0,0,.36.36ZM39.11,16l-.5.19.06.13.19-.14Zm4.73-3,.59-.35.74-.41.62-.34.75-.38.59-.31,1.33-.62c.53-.24,1-.46,1.57-.67l.26-.11.88-.33q-1.72-1.68-3.36-3.06h-.06l-.93-.14-.61-.09c-.35-.05-.69-.08-1-.11l-.52-.06c-.52,0-1-.08-1.58-.1A38.38,38.38,0,0,0,35,6.31,29.92,29.92,0,0,0,37.12,13c.34.78.72,1.58,1.12,2.4,1.09-.4,2.18-.76,3.27-1.09l.15-.09.83-.52.56-.35Zm8.94-.65c-.18-.37-.34-.75-.49-1.12h0c-.14-.35-.27-.69-.39-1L51.81,10l-1,.36-.14.06c-.62.24-1.24.5-1.88.78l-1.29.62-.57.29-.75.38-.68.38-.64.35-.58.34c.5-.12,1-.26,1.49-.37A46.21,46.21,0,0,1,52.78,12.28Zm1.15,0c-.19-.21-.38-.4-.57-.6l.28.61Zm10,1.42-.17-.16-.09-.08A33,33,0,0,0,56.22,8.9a23.93,23.93,0,0,0-3.58.85c.8.8,1.58,1.62,2.36,2.47.66,0,1.32,0,2,0A24.7,24.7,0,0,1,64,13.65Zm2.52.76s0,.07,0,.11l.06,0Zm.07,2.69-.06-.18c0,.1,0,.2,0,.3Zm4.17,14.84a9.37,9.37,0,0,1-1.73-.7c0,.17,0,.34-.06.51.35.65.68,1.3,1,1.93Q70.37,32.81,70.73,31.94Zm1.42-.61c0-.23-.05-.46-.09-.69-.07.23-.15.45-.24.68A1.87,1.87,0,0,0,72.15,31.33Zm0-7L72,24c-.07-.16-.15-.31-.23-.47s-.25-.55-.39-.81-.21-.41-.32-.61l-.36-.64c-.13-.23-.27-.45-.41-.68L70,20.3l-.49-.72-.31-.44-.07-.09a35.75,35.75,0,0,1,3,7.75A13.64,13.64,0,0,0,72.11,24.33Zm1.54,4.72a26.61,26.61,0,0,0-.73-2.61,15.45,15.45,0,0,1-.31,2.18,1.74,1.74,0,0,0,0,.22c.14.75.26,1.49.36,2.24L73,31A2.31,2.31,0,0,0,73.65,29.05ZM68.26,52.18l-.06.07a2.56,2.56,0,0,1,.22.35,2.73,2.73,0,0,1,.44-.46h-.23ZM27.8,47.09h1.47c1-.67,2.09-1.37,3.17-2.09H31C29.91,45.72,28.85,46.42,27.8,47.09Zm12,5.75.13.23.61-1.18h0a2.44,2.44,0,0,0-.76.6,4.3,4.3,0,0,0-.35.6l.28-.19ZM27.33,41.14q1.38-1.1,2.85-2.22l.77,1,.35-.83-.49-.62.4-.31.31.42.37-.85,0,0,.08-.06.63-1.46L31.38,37q-1.8-2.52-3.44-5.06l-.09,1.32c.93,1.41,1.89,2.82,2.9,4.23l-.43.32c-.85-1-1.71-2.08-2.57-3.08l-.08,1.14c.68.8,1.35,1.6,2,2.43L27.4,40.06Z"/><path class="cls-2" d="M32.29,55.32H30.42l1.13-5.39L27,55.32H25.05l1.49-7.38h1.81l-1.2,5.17,4.35-5.17h2l-1,5.11,4.2-5.11h1.8Z"/><path class="cls-2" d="M37.33,55.32H35.59l3.7-7.38H41l-1.32,2.64A6,6,0,0,1,41,50a4,4,0,0,1,1.15-.17,1.6,1.6,0,0,1,1.17.37,1,1,0,0,1,.22,1,5.73,5.73,0,0,1-.44,1l-1.58,3.12H39.74l1.62-3.17c.17-.35.28-.57.31-.67a.41.41,0,0,0-.1-.42.72.72,0,0,0-.52-.16,2,2,0,0,0-.93.25,3.28,3.28,0,0,0-1,.81,7,7,0,0,0-.71,1.24Z"/><path class="cls-2" d="M44,53.11a4,4,0,0,1,1.6-2.37,4.86,4.86,0,0,1,2.9-.88,2.85,2.85,0,0,1,2.08.65A1.73,1.73,0,0,1,51,52.27a4,4,0,0,1-1.56,2.24,4.73,4.73,0,0,1-2.94,1,3.45,3.45,0,0,1-1.55-.31,1.54,1.54,0,0,1-.85-.85A2,2,0,0,1,44,53.11Zm5.26-1a.85.85,0,0,0-.16-.82,1.11,1.11,0,0,0-.87-.31,2.19,2.19,0,0,0-1.08.29,2.62,2.62,0,0,0-.89.84,3.18,3.18,0,0,0-.5,1,1,1,0,0,0,.16.91,1.12,1.12,0,0,0,.87.33,2.1,2.1,0,0,0,1.34-.5A3.27,3.27,0,0,0,49.27,52.08Z"/><path class="cls-2" d="M50.85,55.32l3.7-7.38H56.3l-3.7,7.38Z"/><path class="cls-2" d="M61.22,53.11H56.81l0,.13a.93.93,0,0,0,.16.86,1.1,1.1,0,0,0,.83.32,2,2,0,0,0,1.56-.75l1.51.22a4.23,4.23,0,0,1-1.51,1.17,4.28,4.28,0,0,1-1.83.4,2.57,2.57,0,0,1-2-.69,1.81,1.81,0,0,1-.38-1.8A3.87,3.87,0,0,1,56.37,51a4.61,4.61,0,0,1,3.17-1.16,2.24,2.24,0,0,1,1.75.61,1.76,1.76,0,0,1,.28,1.7A3.74,3.74,0,0,1,61.22,53.11ZM60,52.23a.68.68,0,0,0,0-.15,1,1,0,0,0-.1-.89,1,1,0,0,0-.8-.29,1.91,1.91,0,0,0-1.05.33,2.37,2.37,0,0,0-.83,1Z"/><path class="cls-2" d="M61.46,53.83l1.74-.22a1.08,1.08,0,0,0,.41.63,1.73,1.73,0,0,0,.88.18,2.07,2.07,0,0,0,1-.22.58.58,0,0,0,.34-.37.26.26,0,0,0-.06-.26,2,2,0,0,0-.66-.27,7.21,7.21,0,0,1-1.81-.68.94.94,0,0,1-.34-1,1.88,1.88,0,0,1,.85-1.09,4.47,4.47,0,0,1,2.54-.64,3.3,3.3,0,0,1,1.8.38,1.18,1.18,0,0,1,.56,1l-1.67.23a.62.62,0,0,0-.31-.44,1.8,1.8,0,0,0-.89-.2A1.78,1.78,0,0,0,65,51a.61.61,0,0,0-.33.35.29.29,0,0,0,.16.34,6.59,6.59,0,0,0,.91.28,4.48,4.48,0,0,1,1.58.6.93.93,0,0,1,.36,1,2.18,2.18,0,0,1-1.1,1.32,4.44,4.44,0,0,1-2.33.56A3.94,3.94,0,0,1,62.2,55,1.56,1.56,0,0,1,61.46,53.83Z"/><path class="cls-2" d="M71.69,51.49,70,51.37a3.15,3.15,0,0,1,1.3-1.11,4.59,4.59,0,0,1,2-.4,2.88,2.88,0,0,1,1.76.41,1,1,0,0,1,.35,1,3.14,3.14,0,0,1-.18.51c-.08.18-.32.66-.72,1.43A7.21,7.21,0,0,0,74,54.56a2.37,2.37,0,0,0,0,.76H72.22a2,2,0,0,1,0-.6,3.34,3.34,0,0,1-1,.54,3.18,3.18,0,0,1-1,.2A1.63,1.63,0,0,1,68.94,55a1.13,1.13,0,0,1-.25-1.12,2,2,0,0,1,.88-1.22,4.52,4.52,0,0,1,2.2-.55,11.13,11.13,0,0,0,1.73-.21,2,2,0,0,0,.23-.48.37.37,0,0,0-.14-.39A1,1,0,0,0,73,50.9a1.82,1.82,0,0,0-.79.15A1.2,1.2,0,0,0,71.69,51.49ZM73,52.83a3.13,3.13,0,0,1-.44.07,5.46,5.46,0,0,0-1.81.38.76.76,0,0,0-.41.49.42.42,0,0,0,.11.42.73.73,0,0,0,.54.18,2.18,2.18,0,0,0,.79-.16,1.68,1.68,0,0,0,.62-.41,3.41,3.41,0,0,0,.5-.77Z"/><path class="cls-2" d="M75.23,55.32l3.7-7.38h1.74L77,55.32Z"/><path class="cls-2" d="M85.59,53.11h-4.4l0,.13a.91.91,0,0,0,.16.86,1.08,1.08,0,0,0,.83.32,2.06,2.06,0,0,0,1.56-.75l1.51.22a4.34,4.34,0,0,1-3.34,1.57,2.57,2.57,0,0,1-2-.69,1.81,1.81,0,0,1-.38-1.8A3.87,3.87,0,0,1,80.75,51a4.59,4.59,0,0,1,3.17-1.16,2.23,2.23,0,0,1,1.74.61,1.76,1.76,0,0,1,.29,1.7A4.18,4.18,0,0,1,85.59,53.11Zm-1.26-.88,0-.15a.83.83,0,0,0-.9-1.18,1.94,1.94,0,0,0-1.06.33,2.44,2.44,0,0,0-.83,1Z"/><path class="cls-2" d="M89.16,55.32l3.69-7.38h6.27l-.62,1.24H94.08L93.19,51h4.33l-.62,1.23H92.57L91,55.32Z"/><path class="cls-2" d="M97.61,53.11a4,4,0,0,1,1.61-2.37,4.83,4.83,0,0,1,2.89-.88,2.87,2.87,0,0,1,2.09.65,1.75,1.75,0,0,1,.37,1.76A4,4,0,0,1,103,54.51a4.73,4.73,0,0,1-2.94,1,3.45,3.45,0,0,1-1.55-.31,1.57,1.57,0,0,1-.85-.85A2,2,0,0,1,97.61,53.11Zm5.26-1a.83.83,0,0,0-.16-.82,1.1,1.1,0,0,0-.86-.31,2.25,2.25,0,0,0-1.09.29,2.62,2.62,0,0,0-.89.84,3.41,3.41,0,0,0-.5,1,1,1,0,0,0,.16.91,1.12,1.12,0,0,0,.87.33,2.08,2.08,0,0,0,1.34-.5A3.21,3.21,0,0,0,102.87,52.08Z"/><path class="cls-2" d="M105.27,53.11a4,4,0,0,1,1.6-2.37,4.83,4.83,0,0,1,2.89-.88,2.87,2.87,0,0,1,2.09.65,1.75,1.75,0,0,1,.37,1.76,4,4,0,0,1-1.56,2.24,4.73,4.73,0,0,1-2.94,1,3.45,3.45,0,0,1-1.55-.31,1.57,1.57,0,0,1-.85-.85A1.92,1.92,0,0,1,105.27,53.11Zm5.25-1a.83.83,0,0,0-.16-.82,1.1,1.1,0,0,0-.86-.31,2.19,2.19,0,0,0-1.08.29,2.56,2.56,0,0,0-.9.84,3.13,3.13,0,0,0-.49,1,.94.94,0,0,0,.15.91,1.12,1.12,0,0,0,.87.33,2.08,2.08,0,0,0,1.34-.5A3.21,3.21,0,0,0,110.52,52.08Z"/><path class="cls-2" d="M118.11,55.32h-1.65l.29-.58a4.36,4.36,0,0,1-1.07.55,3.51,3.51,0,0,1-1.09.17,1.88,1.88,0,0,1-1.5-.57,1.83,1.83,0,0,1-.21-1.67,4.6,4.6,0,0,1,1.46-2.32,3.82,3.82,0,0,1,2.62-1,1.82,1.82,0,0,1,1.78.86l1.42-2.78h1.74Zm-3.51-2.17a.94.94,0,0,0,.14.89,1,1,0,0,0,.79.33,2,2,0,0,0,1-.27,2.79,2.79,0,0,0,.87-.82,3.11,3.11,0,0,0,.51-1.06,1,1,0,0,0-.95-1.29,2,2,0,0,0-1.45.7A3.35,3.35,0,0,0,114.6,53.15Z"/><path class="cls-3" d="M19.91,18.75h7.53L25.8,43.64H18.27l.37-3.56H10.51l-2.7,3.56H0Zm-5.43,16h4.78l.82-7.46H20Z"/><path class="cls-3" d="M38.75,25.13h-6.9l2.74-6.38H56.06l-2.73,6.38H46.42L38.49,43.64H30.82Z"/><path class="cls-3" d="M58.92,18.75h7.67L58.65,37.26h11l-2.74,6.38H48.25Z"/><path class="cls-3" d="M87.05,18.75h7.53L92.94,43.64H85.41l.37-3.56H77.65L75,43.64H67.14Zm-5.43,16H86.4l.82-7.46h-.07Z"/><path class="cls-3" d="M114.63,26.28a1.9,1.9,0,0,0-.41-2.06,3.19,3.19,0,0,0-2.11-.56c-1.29,0-3,.38-3.41,2-.42,1.89,3.29,2,5.53,2.86,4,1.54,4.92,3.91,4.27,6.87-1.33,6-7.78,8.82-13.18,8.82-5.72,0-10.3-2.62-8.58-9h7.43a3.18,3.18,0,0,0,.31,2.82c.54.56,1.43.63,2.69.63,1.5,0,3.51-.77,3.88-2.4.4-1.82-2.09-2.06-5.29-3.21-2.81-1-5.38-2.62-4.46-6.76,1.24-5.62,7.25-8.2,12.27-8.2,5.3,0,9.64,2,8.14,8.13Z"/><rect id="_Slice_" data-name="&lt;Slice&gt;" class="cls-4" x="-1.57" y="-2.11" width="127" height="68"/></svg>